<svg viewBox="-31 0 511 511.99928" xmlns="http://www.w3.org/2000/svg"><path d="m193.480469 193.796875c-4.460938 0-8.652344 1.96875-11.496094 5.402344-6.609375 7.972656-14.488281 20.023437-14.488281 32.167969 0 14.328124 11.65625 25.980468 25.984375 25.980468 14.324219 0 25.980469-11.652344 25.980469-25.980468 0-12.148438-7.878907-24.195313-14.484376-32.167969-2.847656-3.429688-7.035156-5.402344-11.496093-5.402344zm10.980469 37.570313c0 6.054687-4.925782 10.980468-10.980469 10.980468-6.058594 0-10.984375-4.925781-10.984375-10.980468 0-5.886719 4.003906-14.097657 10.984375-22.53125 6.980469 8.433593 10.980469 16.644531 10.980469 22.53125zm-10.9375-22.597657-5.769532-4.78125 5.78125 4.78125s-.003906 0-.011718 0zm11.367187-30.246093c3.847656 0 7.121094-2.941407 7.464844-6.847657l.855469-9.753906c.359374-4.128906-2.691407-7.765625-6.820313-8.128906-4.09375-.351563-7.761719 2.691406-8.125 6.820312l-.855469 9.757813c-.359375 4.125 2.691406 7.761718 6.820313 8.125.222656.019531.441406.027344.660156.027344zm224.578125-6.21875c-2.621094-3.207032-7.347656-3.679688-10.554688-1.0625-3.207031 2.625-3.679687 7.347656-1.058593 10.554687 12.601562 15.414063 18.519531 34.832031 16.664062 54.667969-1.859375 19.859375-11.296875 37.855468-26.578125 50.675781-40.613281 34.082031-115.355468 25.609375-175.417968 18.808594-11.734376-1.328125-22.820313-2.585938-33.261719-3.5-19.367188-1.691407-37.417969-8.769531-52.464844-20.34375-.066406-.054688-.125-.117188-.191406-.171875-.113281-.089844-.230469-.164063-.339844-.246094-5.5625-4.335938-10.710937-9.289062-15.351563-14.816406-17.285156-20.601563-25.515624-46.703125-23.171874-73.492188 1.519531-17.371094 7.398437-33.75 17.101562-47.9375 3.574219 4.550782 7.667969 7.84375 12.25 9.824219.972656.417969 1.980469.613281 2.972656.613281 2.898438 0 5.664063-1.695312 6.886719-4.527344 1.644531-3.804687-.109375-8.21875-3.910156-9.859374-4.03125-1.738282-7.652344-5.976563-10.777344-12.585938-.019531-.046875-.042969-.097656-.066406-.144531-.015625-.03125-.03125-.058594-.046875-.089844-4.410156-9.464844-6.984375-22.019531-6.71875-32.769531.238281-9.738282 2.773437-16.902344 6.613281-18.695313s10.960937.875 18.578125 6.949219c8.402344 6.707031 16.367188 16.746094 20.777344 26.210938 2.769531 5.9375 3.84375 10.980468 3.191406 14.984374-.664062 4.089844 2.109375 7.941407 6.199219 8.609376 4.101562.667968 7.941406-2.113282 8.605469-6.199219 1.15625-7.109375-.269532-14.84375-4.359376-23.644531 10.359376-2.4375 21.007813-3.203126 31.773438-2.257813 3.566406.308594 7.15625.664063 10.738281 1.054687-2.121093 6.859376-1.3125 14.425782 2.546875 20.816407 11.351563 18.8125 31.414063 29.925781 52.871094 29.925781 3.203125 0 6.441406-.25 9.683594-.753906 10.246094-1.605469 18.472656-9.148438 20.953125-19.214844l3.03125-12.292969c30.910156 9.972657 57.675781 23.136719 77.746093 38.296875 1.355469 1.023438 2.941407 1.515625 4.515626 1.515625 2.273437 0 4.519531-1.027343 5.992187-2.980469 2.496094-3.304687 1.839844-8.007812-1.464844-10.503906-13.175781-9.949218-28.96875-19.0625-46.746093-27.050781 3.445312-17.394531.292968-31.214844-8.863282-37.625-5.535156-3.875-12.75-4.816406-21.007812-2.902344l7.441406-30.167969c.003906-.019531.007812-.035156.011719-.050781l4.503906-18.269531c2.917969-11.816406-2.972656-24.128906-14.007813-29.273438-11.027343-5.144531-24.25-1.742187-31.429687 8.085938l-34.84375 47.707031c-16.671875-16.183593-40.574219-26.011719-69.777344-28.566406-29.753906-2.597656-57.5 5.15625-78.125 21.84375-20.074219 16.246094-32.414062 39.871094-34.746093 66.519531-.324219 3.714844-.421876 7.5-.285157 11.25.144531 3.921875-1.773437 7.796875-5.125 10.371094-17.4375 13.390625-28.015625 31.863281-29.777343 52.019531-1.839844 21.015625-12.386719 37.324219-26.875 41.542969-6.148438 1.792969-10.847657 6.570312-12.574219 12.78125-1.75 6.292969-.164063 12.90625 4.246093 17.6875 10.589844 11.488281 29.363282 23.085938 51.503907 31.8125 20.328125 8.011719 42.542969 13.253906 63.632812 15.105469-.648437 1.820312-1.234375 3.65625-1.765625 5.515625-1.367187 1.875-2.507812 3.925781-3.386718 6.132812-6.710938 16.808594-8.90625 31.941406-9.902344 46.390625-6.730469 9.457031-10.277344 20.554688-10.277344 32.242188 0 4.742187-3.664062 8.199219-10.894531 10.277343-6.453125 1.855469-10.960938 7.148438-11.765625 13.8125-.800782 6.640626 2.4375 13.085938 8.253906 16.417969.652344.375 1.300781.734375 1.949219 1.089844 1.140625.621094 2.371093.917969 3.585937.917969 2.65625 0 5.230469-1.414063 6.589844-3.910156 1.984375-3.636719.644531-8.191407-2.996094-10.175782-.558594-.304687-1.113281-.617187-1.671875-.9375-.78125-.445312-.878906-1.121094-.820312-1.605468.113281-.933594.769531-1.121094 1.019531-1.191407 8.3125-2.390625 14.476562-6.609375 18.082031-12.132812 1.089844 2.308593 2.5 4.488281 4.21875 6.46875 4.925781 5.671875 11.765625 9.089843 19.257813 9.617187.652344.046875 1.328125.070313 2.003906.070313 8.519531 0 16.230469-3.867188 21.417969-9.972657 1.691406 1.203126 3.417969 2.363282 5.203125 3.460938v17.820312c-2.523438.480469-5.085938.730469-7.675782.730469-9.945312 0-20.664062-.269531-31.636718-2.234375-4.078125-.726562-7.976563 1.988282-8.703125 6.066406-.730469 4.078126 1.984375 7.972657 6.0625 8.703126 12.125 2.164062 23.640625 2.464843 34.277343 2.464843 2.578126 0 5.136719-.1875 7.675782-.539062v27.828125c0 15.511718 12.617187 28.128906 28.128906 28.128906 15.507812 0 28.125-12.617188 28.125-28.128906v-44.222656c4.410156.316406 8.941406.492187 13.605469.492187 1.929687 0 3.835937-.035156 5.730469-.09375v43.824219c0 15.511718 12.617187 28.128906 28.128906 28.128906 15.507812 0 28.125-12.617188 28.125-28.128906v-56.566406c2.363281-1.164063 4.652344-2.398438 6.867187-3.710938 5.210938 6.785156 13.335938 10.96875 22.246094 10.96875.652344 0 1.324219-.019531 2-.066406 15.472656-1.089844 27.171875-14.566406 26.082031-30.039063-.320312-4.523437-.648437-8.984375-1-13.484375 0-.027344-.003906-.050781-.003906-.078125-1.195312-15.335937-2.664062-31.132812-5.015625-51.472656-.054687-4.472656-.441406-8.933594-1.171875-13.347656 29.394531-2.574219 56.546875-10.234375 77.054688-27.441407 18.320312-15.375 29.640624-36.957031 31.867187-60.765624 2.226563-23.792969-4.871094-47.078126-19.984375-65.5625zm-130.425781-42.210938c-1.03125 4.1875-4.449219 7.320312-8.710938 7.988281-18.910156 2.953125-37.503906-5.71875-47.390625-22.101562-.925781-1.53125-1.425781-3.222657-1.519531-4.929688 8.433594 2.214844 17.28125 3.328125 26.515625 3.328125 11.503906 0 23.605469-1.714844 36.25-5.144531zm40.167969-34.761719c3.535156 2.476563 4.679687 9.96875 3.285156 19.382813-7.167969-2.820313-14.589844-5.476563-22.253906-7.925782l2.285156-9.265624c7.355468-3.492188 13.601562-4.351563 16.683594-2.191407zm-33.765626-76.015625c2.035157-2.789062 5.246094-4.324218 8.535157-4.324218 1.5 0 3.015625.320312 4.441406.984374 4.554687 2.125 6.988281 7.210938 5.78125 12.089844l-3.441406 13.96875c-12.109375 2.878906-23.582031 3.960938-34.273438 3.230469zm-29.132812 39.886719c5.414062.855469 11 1.289063 16.742188 1.289063 7.640624 0 15.5625-.777344 23.71875-2.292969l-8.414063 34.117187c-22.050781 7.214844-42.128906 8.878906-59.882813 4.988282zm-259.839844 194.253906c-1.246094-1.351562-.992187-2.894531-.824218-3.496093.195312-.703126.753906-1.945313 2.316406-2.402344 20.476562-5.960938 35.242187-27.410156 37.625-54.640625 1.394531-15.917969 9.90625-30.628907 23.96875-41.425781 7.195312-5.527344 11.300781-14.054688 10.980468-22.816407-.113281-3.132812-.035156-6.292969.238282-9.394531 1.972656-22.558594 12.359375-42.503906 29.242187-56.167969 17.839844-14.4375 41.140625-20.859375 67.378907-18.558593 27.011718 2.363281 47.859374 11.078124 62.121093 25.894531l-13.410156 18.355469c-5.984375-.730469-12.015625-1.367188-17.988281-1.890626-13.945313-1.21875-27.730469.046876-41.058594 3.761719-13.332031-18.515625-34.984375-34.695312-51.355469-27.0625-9.445312 4.40625-14.871093 15.742188-15.273437 31.917969-.285156 11.644531 2.078125 24.578125 6.398437 35.453125-13.78125 17.613281-22.070312 38.632813-24.035156 61.085937-2.691406 30.78125 6.765625 60.769532 26.625 84.441407 3.789063 4.515625 7.871094 8.695312 12.207031 12.523437-1.558594 2.273438-3.007812 4.59375-4.355468 6.953125-37.394532-2.332031-88.796876-18.660156-110.800782-42.53125zm128.660156 148.878907c-.480468 6.84375-6.222656 12.207031-13.070312 12.207031-.3125 0-.625-.011719-.945312-.03125-3.496094-.25-6.691407-1.839844-8.988282-4.488281-2.300781-2.648438-3.429687-6.035157-3.183594-9.535157.089844-1.285156.167969-2.5625.242188-3.835937l26.171875 2.144531c-.070313 1.167969-.140625 2.34375-.226563 3.539063zm54.804688 81.535156c0 7.238281-5.886719 13.128906-13.125 13.128906s-13.128906-5.890625-13.128906-13.128906v-3.308594h26.253906zm0-18.308594h-26.253906v-19.027344c0-.011718 0-.027344 0-.042968v-15.925782c8.042968 3.265625 16.800781 5.699219 26.253906 7.292969zm75.589844 18.308594c0 7.238281-5.886719 13.128906-13.125 13.128906-7.238282 0-13.128906-5.890625-13.128906-13.128906v-3.308594h26.253906zm0-18.308594h-26.253906v-26.613281c9.339843-1.109375 18.117187-2.988281 26.253906-5.613281zm5.28125-50.152344c-.449219.136719-.878906.320313-1.285156.535156-14.183594 6.097657-31.21875 9.195313-50.980469 9.195313-7.109375 0-13.855469-.421875-20.261719-1.21875-.039062-.003906-.078125-.007813-.117188-.011719-14.550781-1.824218-27.269531-5.691406-38.042968-11.589844-.160156-.097656-.324219-.191406-.488282-.277343-3.464843-1.925781-6.738281-4.054688-9.792968-6.402344.113281-.742187.203125-1.488281.257812-2.25.421875-6.015625.648438-11.613281.867188-17.03125l.007812-.226563c.675782-16.957031 1.160156-29.207031 6.699219-43.078124.988281-2.480469 1.625-5.078126 1.878906-7.726563.402344-4.121094-2.617187-7.789063-6.738281-8.1875-4.125-.398437-7.789062 2.617187-8.191406 6.738281-.117188 1.230469-.414063 2.445313-.882813 3.609375-6.269531 15.710938-7.03125 29.992188-7.683593 46.3125l-26.191407-2.144531c.695313-16.960938 1.761719-34.53125 9.492188-53.902344 1.0625-2.652344 2.902343-4.839844 5.328125-6.324218 3.535156-2.160157 4.648437-6.777344 2.488281-10.3125-.132813-.214844-.273437-.421876-.425781-.621094 1.867187-4.230469 4.140625-8.324219 6.792968-12.261719 16.035157 10.800781 34.625 17.425781 54.414063 19.160156 10.25.894531 21.242187 2.140625 32.878906 3.460938 26.386719 2.988281 55.472657 6.285156 83.71875 6.28125 3.648438 0 7.285157-.054688 10.898438-.171875.808593 4.308594 1.234375 8.679687 1.261719 13.058594v.011718c.003906.167969.007812.332032.007812.496094 0 24.457031-8.023438 45.109375-23.203125 59.726562-6.4375 6.203126-14.019531 11.257813-22.707031 15.152344zm39.785156 4.121094c-4.300781.292969-8.308594-1.511719-10.9375-4.628906 1.46875-1.238282 2.894531-2.511719 4.269531-3.835938 2.757813-2.65625 5.292969-5.488281 7.652344-8.449218l10.824219-2.082032c.121094 1.65625.238281 3.3125.355468 4.980469.507813 7.21875-4.953124 13.507813-12.164062 14.015625zm16.429688-229.449219c3.847656 0 7.121093-2.941406 7.464843-6.84375l.851563-9.757812c.359375-4.128907-2.691406-7.765625-6.816406-8.125-4.109376-.355469-7.765626 2.691406-8.125 6.816406l-.855469 9.757813c-.359375 4.125 2.691406 7.765624 6.816406 8.125.222656.019531.445313.027343.664063.027343zm-19.125 90.164063c2.871093 2.980468 7.621093 3.070312 10.605468.195312 5.707032-5.496094 13.5-8.253906 21.367188-7.566406 7.871094.691406 15.066406 4.757812 19.730468 11.164062 1.46875 2.015626 3.753907 3.085938 6.070313 3.085938 1.53125 0 3.078125-.46875 4.410156-1.4375 3.347657-2.441406 4.082031-7.132812 1.644531-10.480469-7.21875-9.910156-18.355468-16.207031-30.546874-17.273437-12.195313-1.0625-24.253907 3.199218-33.082032 11.707031-2.984375 2.871094-3.074218 7.621094-.199218 10.605469zm0 0"/></svg>